<mxfile host="Electron" modified="2023-10-15T20:01:28.736Z" agent="Mozilla/5.0 (X11; Linux x86_64) AppleWebKit/537.36 (KHTML, like Gecko) draw.io/21.7.5 Chrome/114.0.5735.289 Electron/25.8.1 Safari/537.36" etag="NVIvJCSR2KVKd3WR2KiY" version="21.7.5" type="device">
  <diagram name="Página-1" id="PMhbS9MLf35s-4a1PXCw">
    <mxGraphModel dx="1434" dy="810" grid="1" gridSize="10" guides="1" tooltips="1" connect="1" arrows="1" fold="1" page="1" pageScale="1" pageWidth="827" pageHeight="1169" math="0" shadow="0">
      <root>
        <mxCell id="0" />
        <mxCell id="1" parent="0" />
        <mxCell id="VYpq-zXMXDdREieyz57f-11" style="edgeStyle=orthogonalEdgeStyle;rounded=0;orthogonalLoop=1;jettySize=auto;html=1;" edge="1" parent="1" source="VYpq-zXMXDdREieyz57f-1" target="VYpq-zXMXDdREieyz57f-10">
          <mxGeometry relative="1" as="geometry" />
        </mxCell>
        <mxCell id="VYpq-zXMXDdREieyz57f-1" value="Inicio" style="strokeWidth=2;html=1;shape=mxgraph.flowchart.terminator;whiteSpace=wrap;" vertex="1" parent="1">
          <mxGeometry x="210" y="180" width="100" height="30" as="geometry" />
        </mxCell>
        <mxCell id="VYpq-zXMXDdREieyz57f-55" style="edgeStyle=orthogonalEdgeStyle;rounded=0;orthogonalLoop=1;jettySize=auto;html=1;entryX=0.5;entryY=0;entryDx=0;entryDy=0;" edge="1" parent="1" source="VYpq-zXMXDdREieyz57f-2" target="VYpq-zXMXDdREieyz57f-33">
          <mxGeometry relative="1" as="geometry" />
        </mxCell>
        <mxCell id="VYpq-zXMXDdREieyz57f-2" value="cadastarPessoas" style="strokeWidth=2;html=1;shape=mxgraph.flowchart.terminator;whiteSpace=wrap;" vertex="1" parent="1">
          <mxGeometry x="1750" y="400" width="100" height="30" as="geometry" />
        </mxCell>
        <mxCell id="VYpq-zXMXDdREieyz57f-58" style="edgeStyle=orthogonalEdgeStyle;rounded=0;orthogonalLoop=1;jettySize=auto;html=1;" edge="1" parent="1" source="VYpq-zXMXDdREieyz57f-3" target="VYpq-zXMXDdREieyz57f-59">
          <mxGeometry relative="1" as="geometry">
            <mxPoint x="1095" y="250" as="targetPoint" />
          </mxGeometry>
        </mxCell>
        <mxCell id="VYpq-zXMXDdREieyz57f-3" value="pesquisarPessoas" style="strokeWidth=2;html=1;shape=mxgraph.flowchart.terminator;whiteSpace=wrap;" vertex="1" parent="1">
          <mxGeometry x="1045" y="170" width="100" height="30" as="geometry" />
        </mxCell>
        <mxCell id="VYpq-zXMXDdREieyz57f-96" style="edgeStyle=orthogonalEdgeStyle;rounded=0;orthogonalLoop=1;jettySize=auto;html=1;entryX=0.5;entryY=0;entryDx=0;entryDy=0;" edge="1" parent="1" source="VYpq-zXMXDdREieyz57f-4" target="VYpq-zXMXDdREieyz57f-87">
          <mxGeometry relative="1" as="geometry" />
        </mxCell>
        <mxCell id="VYpq-zXMXDdREieyz57f-4" value="ordenarRegistros" style="strokeWidth=2;html=1;shape=mxgraph.flowchart.terminator;whiteSpace=wrap;" vertex="1" parent="1">
          <mxGeometry x="2210" y="340" width="100" height="30" as="geometry" />
        </mxCell>
        <mxCell id="VYpq-zXMXDdREieyz57f-199" style="edgeStyle=orthogonalEdgeStyle;rounded=0;orthogonalLoop=1;jettySize=auto;html=1;entryX=0.5;entryY=0;entryDx=0;entryDy=0;entryPerimeter=0;" edge="1" parent="1" source="VYpq-zXMXDdREieyz57f-5" target="VYpq-zXMXDdREieyz57f-194">
          <mxGeometry relative="1" as="geometry" />
        </mxCell>
        <mxCell id="VYpq-zXMXDdREieyz57f-5" value="apresentarRegistros" style="strokeWidth=2;html=1;shape=mxgraph.flowchart.terminator;whiteSpace=wrap;" vertex="1" parent="1">
          <mxGeometry x="2895" y="270" width="110" height="30" as="geometry" />
        </mxCell>
        <mxCell id="VYpq-zXMXDdREieyz57f-6" value="char nomes[100];&lt;br&gt;char endereços[100];&lt;br&gt;char telefones[12];&lt;br&gt;" style="rounded=1;whiteSpace=wrap;html=1;absoluteArcSize=1;arcSize=14;strokeWidth=2;" vertex="1" parent="1">
          <mxGeometry x="40" y="30" width="140" height="100" as="geometry" />
        </mxCell>
        <mxCell id="VYpq-zXMXDdREieyz57f-249" style="edgeStyle=orthogonalEdgeStyle;rounded=0;orthogonalLoop=1;jettySize=auto;html=1;" edge="1" parent="1" source="VYpq-zXMXDdREieyz57f-7" target="VYpq-zXMXDdREieyz57f-250">
          <mxGeometry relative="1" as="geometry">
            <mxPoint x="260" y="1770" as="targetPoint" />
            <Array as="points">
              <mxPoint x="600" y="460" />
              <mxPoint x="600" y="1720" />
              <mxPoint x="260" y="1720" />
            </Array>
          </mxGeometry>
        </mxCell>
        <mxCell id="VYpq-zXMXDdREieyz57f-255" style="edgeStyle=orthogonalEdgeStyle;rounded=0;orthogonalLoop=1;jettySize=auto;html=1;entryX=0.5;entryY=0;entryDx=0;entryDy=0;" edge="1" parent="1" source="VYpq-zXMXDdREieyz57f-7" target="VYpq-zXMXDdREieyz57f-19">
          <mxGeometry relative="1" as="geometry" />
        </mxCell>
        <mxCell id="VYpq-zXMXDdREieyz57f-7" value="parada !=&amp;nbsp; true" style="strokeWidth=2;html=1;shape=mxgraph.flowchart.decision;whiteSpace=wrap;" vertex="1" parent="1">
          <mxGeometry x="210" y="410" width="100" height="100" as="geometry" />
        </mxCell>
        <mxCell id="VYpq-zXMXDdREieyz57f-14" style="edgeStyle=orthogonalEdgeStyle;rounded=0;orthogonalLoop=1;jettySize=auto;html=1;" edge="1" parent="1" source="VYpq-zXMXDdREieyz57f-10" target="VYpq-zXMXDdREieyz57f-13">
          <mxGeometry relative="1" as="geometry" />
        </mxCell>
        <mxCell id="VYpq-zXMXDdREieyz57f-10" value="bool parada = false;" style="rounded=1;whiteSpace=wrap;html=1;absoluteArcSize=1;arcSize=14;strokeWidth=2;" vertex="1" parent="1">
          <mxGeometry x="210" y="260" width="100" height="40" as="geometry" />
        </mxCell>
        <mxCell id="VYpq-zXMXDdREieyz57f-254" style="edgeStyle=orthogonalEdgeStyle;rounded=0;orthogonalLoop=1;jettySize=auto;html=1;" edge="1" parent="1" source="VYpq-zXMXDdREieyz57f-13" target="VYpq-zXMXDdREieyz57f-7">
          <mxGeometry relative="1" as="geometry" />
        </mxCell>
        <mxCell id="VYpq-zXMXDdREieyz57f-13" value="char opcao;" style="rounded=1;whiteSpace=wrap;html=1;absoluteArcSize=1;arcSize=14;strokeWidth=2;" vertex="1" parent="1">
          <mxGeometry x="210" y="330" width="100" height="40" as="geometry" />
        </mxCell>
        <mxCell id="VYpq-zXMXDdREieyz57f-18" value="Sim" style="text;html=1;strokeColor=none;fillColor=none;align=center;verticalAlign=middle;whiteSpace=wrap;rounded=0;" vertex="1" parent="1">
          <mxGeometry x="200" y="510" width="60" height="30" as="geometry" />
        </mxCell>
        <mxCell id="VYpq-zXMXDdREieyz57f-25" style="edgeStyle=orthogonalEdgeStyle;rounded=0;orthogonalLoop=1;jettySize=auto;html=1;" edge="1" parent="1" source="VYpq-zXMXDdREieyz57f-19" target="VYpq-zXMXDdREieyz57f-23">
          <mxGeometry relative="1" as="geometry" />
        </mxCell>
        <mxCell id="VYpq-zXMXDdREieyz57f-19" value="" style="rounded=1;whiteSpace=wrap;html=1;absoluteArcSize=1;arcSize=14;strokeWidth=2;" vertex="1" parent="1">
          <mxGeometry x="200" y="560" width="120" height="70" as="geometry" />
        </mxCell>
        <mxCell id="VYpq-zXMXDdREieyz57f-22" value="&lt;font style=&quot;font-size: 8px;&quot;&gt;[1] Registrar 10 pessoas&lt;br&gt;[2] Pesquisar 10 registros&lt;br&gt;[3] Apresentar todos os registros&lt;br&gt;[4] Sair do programa&lt;/font&gt;" style="text;html=1;strokeColor=none;fillColor=none;align=center;verticalAlign=middle;whiteSpace=wrap;rounded=0;" vertex="1" parent="1">
          <mxGeometry x="190" y="580" width="140" height="30" as="geometry" />
        </mxCell>
        <mxCell id="VYpq-zXMXDdREieyz57f-256" style="edgeStyle=orthogonalEdgeStyle;rounded=0;orthogonalLoop=1;jettySize=auto;html=1;entryX=0.5;entryY=0;entryDx=0;entryDy=0;entryPerimeter=0;" edge="1" parent="1" source="VYpq-zXMXDdREieyz57f-23" target="VYpq-zXMXDdREieyz57f-27">
          <mxGeometry relative="1" as="geometry" />
        </mxCell>
        <mxCell id="VYpq-zXMXDdREieyz57f-23" value="opcao" style="html=1;strokeWidth=2;shape=manualInput;whiteSpace=wrap;rounded=1;size=26;arcSize=11;" vertex="1" parent="1">
          <mxGeometry x="210" y="670" width="100" height="60" as="geometry" />
        </mxCell>
        <mxCell id="VYpq-zXMXDdREieyz57f-47" style="edgeStyle=orthogonalEdgeStyle;rounded=0;orthogonalLoop=1;jettySize=auto;html=1;entryX=0.5;entryY=0;entryDx=0;entryDy=0;entryPerimeter=0;" edge="1" parent="1" source="VYpq-zXMXDdREieyz57f-27" target="VYpq-zXMXDdREieyz57f-51">
          <mxGeometry relative="1" as="geometry">
            <mxPoint x="260" y="930" as="targetPoint" />
          </mxGeometry>
        </mxCell>
        <mxCell id="VYpq-zXMXDdREieyz57f-57" style="edgeStyle=orthogonalEdgeStyle;rounded=0;orthogonalLoop=1;jettySize=auto;html=1;entryX=0;entryY=0.5;entryDx=0;entryDy=0;" edge="1" parent="1" source="VYpq-zXMXDdREieyz57f-27" target="VYpq-zXMXDdREieyz57f-29">
          <mxGeometry relative="1" as="geometry" />
        </mxCell>
        <mxCell id="VYpq-zXMXDdREieyz57f-27" value="opcao=&quot;1&quot;" style="strokeWidth=2;html=1;shape=mxgraph.flowchart.decision;whiteSpace=wrap;" vertex="1" parent="1">
          <mxGeometry x="210" y="775" width="100" height="100" as="geometry" />
        </mxCell>
        <mxCell id="VYpq-zXMXDdREieyz57f-240" style="edgeStyle=orthogonalEdgeStyle;rounded=0;orthogonalLoop=1;jettySize=auto;html=1;entryX=1;entryY=0.5;entryDx=0;entryDy=0;entryPerimeter=0;" edge="1" parent="1" source="VYpq-zXMXDdREieyz57f-29" target="VYpq-zXMXDdREieyz57f-242">
          <mxGeometry relative="1" as="geometry">
            <mxPoint x="570" y="1560" as="targetPoint" />
            <Array as="points">
              <mxPoint x="560" y="825" />
              <mxPoint x="560" y="1600" />
            </Array>
          </mxGeometry>
        </mxCell>
        <mxCell id="VYpq-zXMXDdREieyz57f-29" value="" style="verticalLabelPosition=bottom;verticalAlign=top;html=1;shape=process;whiteSpace=wrap;rounded=1;size=0.14;arcSize=6;" vertex="1" parent="1">
          <mxGeometry x="380" y="805" width="150" height="40" as="geometry" />
        </mxCell>
        <mxCell id="VYpq-zXMXDdREieyz57f-31" value="cadastarPessoas()" style="text;html=1;strokeColor=none;fillColor=none;align=center;verticalAlign=middle;whiteSpace=wrap;rounded=0;" vertex="1" parent="1">
          <mxGeometry x="422.5" y="810" width="65" height="30" as="geometry" />
        </mxCell>
        <mxCell id="VYpq-zXMXDdREieyz57f-36" style="edgeStyle=orthogonalEdgeStyle;rounded=0;orthogonalLoop=1;jettySize=auto;html=1;" edge="1" parent="1" source="VYpq-zXMXDdREieyz57f-33" target="VYpq-zXMXDdREieyz57f-37">
          <mxGeometry relative="1" as="geometry">
            <mxPoint x="1800" y="590" as="targetPoint" />
          </mxGeometry>
        </mxCell>
        <mxCell id="VYpq-zXMXDdREieyz57f-43" style="edgeStyle=orthogonalEdgeStyle;rounded=0;orthogonalLoop=1;jettySize=auto;html=1;entryX=0.5;entryY=0;entryDx=0;entryDy=0;" edge="1" parent="1" source="VYpq-zXMXDdREieyz57f-33" target="VYpq-zXMXDdREieyz57f-45">
          <mxGeometry relative="1" as="geometry">
            <mxPoint x="1760" y="920" as="targetPoint" />
            <Array as="points">
              <mxPoint x="1920" y="500" />
              <mxPoint x="1920" y="910" />
              <mxPoint x="1800" y="910" />
            </Array>
          </mxGeometry>
        </mxCell>
        <mxCell id="VYpq-zXMXDdREieyz57f-33" value="" style="verticalLabelPosition=bottom;verticalAlign=top;html=1;shape=hexagon;perimeter=hexagonPerimeter2;arcSize=6;size=0.27;" vertex="1" parent="1">
          <mxGeometry x="1730" y="470" width="140" height="60" as="geometry" />
        </mxCell>
        <mxCell id="VYpq-zXMXDdREieyz57f-34" value="i=0 ; i&amp;lt;quantidadeRegistros; i++" style="text;html=1;strokeColor=none;fillColor=none;align=center;verticalAlign=middle;whiteSpace=wrap;rounded=0;" vertex="1" parent="1">
          <mxGeometry x="1770" y="485" width="60" height="30" as="geometry" />
        </mxCell>
        <mxCell id="VYpq-zXMXDdREieyz57f-39" style="edgeStyle=orthogonalEdgeStyle;rounded=0;orthogonalLoop=1;jettySize=auto;html=1;" edge="1" parent="1" source="VYpq-zXMXDdREieyz57f-37" target="VYpq-zXMXDdREieyz57f-38">
          <mxGeometry relative="1" as="geometry" />
        </mxCell>
        <mxCell id="VYpq-zXMXDdREieyz57f-37" value="cadastroPessoas[i].nome" style="html=1;strokeWidth=2;shape=manualInput;whiteSpace=wrap;rounded=1;size=26;arcSize=11;" vertex="1" parent="1">
          <mxGeometry x="1720" y="580" width="160" height="60" as="geometry" />
        </mxCell>
        <mxCell id="VYpq-zXMXDdREieyz57f-41" style="edgeStyle=orthogonalEdgeStyle;rounded=0;orthogonalLoop=1;jettySize=auto;html=1;entryX=0.481;entryY=0.227;entryDx=0;entryDy=0;entryPerimeter=0;" edge="1" parent="1" source="VYpq-zXMXDdREieyz57f-38" target="VYpq-zXMXDdREieyz57f-40">
          <mxGeometry relative="1" as="geometry" />
        </mxCell>
        <mxCell id="VYpq-zXMXDdREieyz57f-38" value="cadastroPessoas[i].endereco" style="html=1;strokeWidth=2;shape=manualInput;whiteSpace=wrap;rounded=1;size=26;arcSize=11;" vertex="1" parent="1">
          <mxGeometry x="1720" y="680" width="160" height="60" as="geometry" />
        </mxCell>
        <mxCell id="VYpq-zXMXDdREieyz57f-42" style="edgeStyle=orthogonalEdgeStyle;rounded=0;orthogonalLoop=1;jettySize=auto;html=1;entryX=0;entryY=0.5;entryDx=0;entryDy=0;" edge="1" parent="1" source="VYpq-zXMXDdREieyz57f-40" target="VYpq-zXMXDdREieyz57f-33">
          <mxGeometry relative="1" as="geometry">
            <Array as="points">
              <mxPoint x="1803" y="880" />
              <mxPoint x="1660" y="880" />
              <mxPoint x="1660" y="500" />
            </Array>
          </mxGeometry>
        </mxCell>
        <mxCell id="VYpq-zXMXDdREieyz57f-40" value="cadastroPessoas[i].telefone" style="html=1;strokeWidth=2;shape=manualInput;whiteSpace=wrap;rounded=1;size=26;arcSize=11;" vertex="1" parent="1">
          <mxGeometry x="1723" y="770" width="160" height="60" as="geometry" />
        </mxCell>
        <mxCell id="VYpq-zXMXDdREieyz57f-44" value="retorna" style="strokeWidth=2;html=1;shape=mxgraph.flowchart.terminator;whiteSpace=wrap;" vertex="1" parent="1">
          <mxGeometry x="1750" y="1137" width="100" height="30" as="geometry" />
        </mxCell>
        <mxCell id="VYpq-zXMXDdREieyz57f-46" style="edgeStyle=orthogonalEdgeStyle;rounded=0;orthogonalLoop=1;jettySize=auto;html=1;entryX=0.5;entryY=0;entryDx=0;entryDy=0;" edge="1" parent="1" source="VYpq-zXMXDdREieyz57f-45" target="VYpq-zXMXDdREieyz57f-261">
          <mxGeometry relative="1" as="geometry">
            <mxPoint x="1800" y="1030" as="targetPoint" />
          </mxGeometry>
        </mxCell>
        <mxCell id="VYpq-zXMXDdREieyz57f-45" value="houveCadastro = true;" style="rounded=1;whiteSpace=wrap;html=1;absoluteArcSize=1;arcSize=14;strokeWidth=2;" vertex="1" parent="1">
          <mxGeometry x="1750" y="950" width="100" height="40" as="geometry" />
        </mxCell>
        <mxCell id="VYpq-zXMXDdREieyz57f-48" value="Não" style="text;html=1;strokeColor=none;fillColor=none;align=center;verticalAlign=middle;whiteSpace=wrap;rounded=0;" vertex="1" parent="1">
          <mxGeometry x="200" y="880" width="60" height="30" as="geometry" />
        </mxCell>
        <mxCell id="VYpq-zXMXDdREieyz57f-49" style="edgeStyle=orthogonalEdgeStyle;rounded=0;orthogonalLoop=1;jettySize=auto;html=1;" edge="1" source="VYpq-zXMXDdREieyz57f-51" parent="1">
          <mxGeometry relative="1" as="geometry">
            <mxPoint x="370" y="990" as="targetPoint" />
          </mxGeometry>
        </mxCell>
        <mxCell id="VYpq-zXMXDdREieyz57f-228" style="edgeStyle=orthogonalEdgeStyle;rounded=0;orthogonalLoop=1;jettySize=auto;html=1;" edge="1" parent="1" source="VYpq-zXMXDdREieyz57f-51" target="VYpq-zXMXDdREieyz57f-224">
          <mxGeometry relative="1" as="geometry" />
        </mxCell>
        <mxCell id="VYpq-zXMXDdREieyz57f-51" value="opcao=&quot;2&quot;" style="strokeWidth=2;html=1;shape=mxgraph.flowchart.decision;whiteSpace=wrap;" vertex="1" parent="1">
          <mxGeometry x="210" y="940" width="100" height="100" as="geometry" />
        </mxCell>
        <mxCell id="VYpq-zXMXDdREieyz57f-243" style="edgeStyle=orthogonalEdgeStyle;rounded=0;orthogonalLoop=1;jettySize=auto;html=1;" edge="1" parent="1" source="VYpq-zXMXDdREieyz57f-52">
          <mxGeometry relative="1" as="geometry">
            <mxPoint x="560" y="990" as="targetPoint" />
          </mxGeometry>
        </mxCell>
        <mxCell id="VYpq-zXMXDdREieyz57f-52" value="" style="verticalLabelPosition=bottom;verticalAlign=top;html=1;shape=process;whiteSpace=wrap;rounded=1;size=0.14;arcSize=6;" vertex="1" parent="1">
          <mxGeometry x="370" y="970" width="160" height="40" as="geometry" />
        </mxCell>
        <mxCell id="VYpq-zXMXDdREieyz57f-53" value="pesquisarPessoas()" style="text;html=1;strokeColor=none;fillColor=none;align=center;verticalAlign=middle;whiteSpace=wrap;rounded=0;" vertex="1" parent="1">
          <mxGeometry x="420" y="975" width="60" height="30" as="geometry" />
        </mxCell>
        <mxCell id="VYpq-zXMXDdREieyz57f-54" value="Não" style="text;html=1;strokeColor=none;fillColor=none;align=center;verticalAlign=middle;whiteSpace=wrap;rounded=0;" vertex="1" parent="1">
          <mxGeometry x="190" y="1050" width="60" height="30" as="geometry" />
        </mxCell>
        <mxCell id="VYpq-zXMXDdREieyz57f-60" style="edgeStyle=orthogonalEdgeStyle;rounded=0;orthogonalLoop=1;jettySize=auto;html=1;" edge="1" parent="1" source="VYpq-zXMXDdREieyz57f-59" target="VYpq-zXMXDdREieyz57f-120">
          <mxGeometry relative="1" as="geometry">
            <mxPoint x="1265" y="400" as="targetPoint" />
          </mxGeometry>
        </mxCell>
        <mxCell id="VYpq-zXMXDdREieyz57f-61" style="edgeStyle=orthogonalEdgeStyle;rounded=0;orthogonalLoop=1;jettySize=auto;html=1;" edge="1" parent="1" source="VYpq-zXMXDdREieyz57f-59" target="VYpq-zXMXDdREieyz57f-64">
          <mxGeometry relative="1" as="geometry">
            <mxPoint x="945" y="360" as="targetPoint" />
          </mxGeometry>
        </mxCell>
        <mxCell id="VYpq-zXMXDdREieyz57f-59" value="houveCadastro == true" style="strokeWidth=2;html=1;shape=mxgraph.flowchart.decision;whiteSpace=wrap;" vertex="1" parent="1">
          <mxGeometry x="1045" y="250" width="100" height="100" as="geometry" />
        </mxCell>
        <mxCell id="VYpq-zXMXDdREieyz57f-62" value="Sim" style="text;html=1;strokeColor=none;fillColor=none;align=center;verticalAlign=middle;whiteSpace=wrap;rounded=0;" vertex="1" parent="1">
          <mxGeometry x="1205" y="270" width="60" height="30" as="geometry" />
        </mxCell>
        <mxCell id="VYpq-zXMXDdREieyz57f-63" value="Não" style="text;html=1;strokeColor=none;fillColor=none;align=center;verticalAlign=middle;whiteSpace=wrap;rounded=0;" vertex="1" parent="1">
          <mxGeometry x="945" y="270" width="60" height="30" as="geometry" />
        </mxCell>
        <mxCell id="VYpq-zXMXDdREieyz57f-186" style="edgeStyle=orthogonalEdgeStyle;rounded=0;orthogonalLoop=1;jettySize=auto;html=1;" edge="1" parent="1" source="VYpq-zXMXDdREieyz57f-64" target="VYpq-zXMXDdREieyz57f-187">
          <mxGeometry relative="1" as="geometry">
            <mxPoint x="965" y="2290" as="targetPoint" />
            <Array as="points">
              <mxPoint x="945" y="2180" />
            </Array>
          </mxGeometry>
        </mxCell>
        <mxCell id="VYpq-zXMXDdREieyz57f-64" value="&quot;Cadastre primeiro&quot;" style="strokeWidth=2;html=1;shape=mxgraph.flowchart.display;whiteSpace=wrap;" vertex="1" parent="1">
          <mxGeometry x="895" y="400" width="100" height="60" as="geometry" />
        </mxCell>
        <mxCell id="VYpq-zXMXDdREieyz57f-94" style="edgeStyle=orthogonalEdgeStyle;rounded=0;orthogonalLoop=1;jettySize=auto;html=1;entryX=0.5;entryY=0;entryDx=0;entryDy=0;" edge="1" parent="1" source="VYpq-zXMXDdREieyz57f-87" target="VYpq-zXMXDdREieyz57f-92">
          <mxGeometry relative="1" as="geometry" />
        </mxCell>
        <mxCell id="VYpq-zXMXDdREieyz57f-117" style="edgeStyle=orthogonalEdgeStyle;rounded=0;orthogonalLoop=1;jettySize=auto;html=1;" edge="1" parent="1" source="VYpq-zXMXDdREieyz57f-87" target="VYpq-zXMXDdREieyz57f-118">
          <mxGeometry relative="1" as="geometry">
            <mxPoint x="2280" y="1250" as="targetPoint" />
            <Array as="points">
              <mxPoint x="2560" y="445" />
              <mxPoint x="2560" y="1130" />
              <mxPoint x="2280" y="1130" />
            </Array>
          </mxGeometry>
        </mxCell>
        <mxCell id="VYpq-zXMXDdREieyz57f-87" value="" style="verticalLabelPosition=bottom;verticalAlign=top;html=1;shape=hexagon;perimeter=hexagonPerimeter2;arcSize=6;size=0.27;" vertex="1" parent="1">
          <mxGeometry x="2190" y="415" width="140" height="60" as="geometry" />
        </mxCell>
        <mxCell id="VYpq-zXMXDdREieyz57f-88" value="&amp;nbsp;i=0 ; i&amp;lt;quantidadeRegistros; i++" style="text;html=1;strokeColor=none;fillColor=none;align=center;verticalAlign=middle;whiteSpace=wrap;rounded=0;" vertex="1" parent="1">
          <mxGeometry x="2230" y="430" width="60" height="30" as="geometry" />
        </mxCell>
        <mxCell id="VYpq-zXMXDdREieyz57f-97" style="edgeStyle=orthogonalEdgeStyle;rounded=0;orthogonalLoop=1;jettySize=auto;html=1;" edge="1" parent="1" source="VYpq-zXMXDdREieyz57f-92" target="VYpq-zXMXDdREieyz57f-98">
          <mxGeometry relative="1" as="geometry">
            <mxPoint x="2260" y="650" as="targetPoint" />
          </mxGeometry>
        </mxCell>
        <mxCell id="VYpq-zXMXDdREieyz57f-116" style="edgeStyle=orthogonalEdgeStyle;rounded=0;orthogonalLoop=1;jettySize=auto;html=1;entryX=0;entryY=0.5;entryDx=0;entryDy=0;" edge="1" parent="1" source="VYpq-zXMXDdREieyz57f-92" target="VYpq-zXMXDdREieyz57f-87">
          <mxGeometry relative="1" as="geometry">
            <Array as="points">
              <mxPoint x="2520" y="555" />
              <mxPoint x="2520" y="1090" />
              <mxPoint x="2000" y="1090" />
              <mxPoint x="2000" y="445" />
            </Array>
          </mxGeometry>
        </mxCell>
        <mxCell id="VYpq-zXMXDdREieyz57f-92" value="" style="verticalLabelPosition=bottom;verticalAlign=top;html=1;shape=hexagon;perimeter=hexagonPerimeter2;arcSize=6;size=0.27;" vertex="1" parent="1">
          <mxGeometry x="2190" y="525" width="140" height="60" as="geometry" />
        </mxCell>
        <mxCell id="VYpq-zXMXDdREieyz57f-93" value="int j=0 ; j&amp;lt;quantidadeRegistros; j++" style="text;html=1;strokeColor=none;fillColor=none;align=center;verticalAlign=middle;whiteSpace=wrap;rounded=0;" vertex="1" parent="1">
          <mxGeometry x="2230" y="540" width="60" height="30" as="geometry" />
        </mxCell>
        <mxCell id="VYpq-zXMXDdREieyz57f-99" style="edgeStyle=orthogonalEdgeStyle;rounded=0;orthogonalLoop=1;jettySize=auto;html=1;" edge="1" parent="1" source="VYpq-zXMXDdREieyz57f-98" target="VYpq-zXMXDdREieyz57f-104">
          <mxGeometry relative="1" as="geometry">
            <mxPoint x="2440" y="770" as="targetPoint" />
          </mxGeometry>
        </mxCell>
        <mxCell id="VYpq-zXMXDdREieyz57f-100" style="edgeStyle=orthogonalEdgeStyle;rounded=0;orthogonalLoop=1;jettySize=auto;html=1;" edge="1" parent="1" source="VYpq-zXMXDdREieyz57f-98" target="VYpq-zXMXDdREieyz57f-111">
          <mxGeometry relative="1" as="geometry">
            <mxPoint x="2080" y="770" as="targetPoint" />
            <Array as="points">
              <mxPoint x="2080" y="700" />
              <mxPoint x="2080" y="1010" />
            </Array>
          </mxGeometry>
        </mxCell>
        <mxCell id="VYpq-zXMXDdREieyz57f-98" value="strmcp(cadastroPessoas[i].nome, cadastroPessoas[j].nome) &amp;gt; 0" style="strokeWidth=2;html=1;shape=mxgraph.flowchart.decision;whiteSpace=wrap;" vertex="1" parent="1">
          <mxGeometry x="2150" y="650" width="220" height="100" as="geometry" />
        </mxCell>
        <mxCell id="VYpq-zXMXDdREieyz57f-101" value="Sim" style="text;html=1;strokeColor=none;fillColor=none;align=center;verticalAlign=middle;whiteSpace=wrap;rounded=0;" vertex="1" parent="1">
          <mxGeometry x="2380" y="670" width="60" height="30" as="geometry" />
        </mxCell>
        <mxCell id="VYpq-zXMXDdREieyz57f-103" value="Não" style="text;html=1;strokeColor=none;fillColor=none;align=center;verticalAlign=middle;whiteSpace=wrap;rounded=0;" vertex="1" parent="1">
          <mxGeometry x="2080" y="670" width="60" height="30" as="geometry" />
        </mxCell>
        <mxCell id="VYpq-zXMXDdREieyz57f-108" value="" style="edgeStyle=orthogonalEdgeStyle;rounded=0;orthogonalLoop=1;jettySize=auto;html=1;" edge="1" parent="1" source="VYpq-zXMXDdREieyz57f-104" target="VYpq-zXMXDdREieyz57f-105">
          <mxGeometry relative="1" as="geometry" />
        </mxCell>
        <mxCell id="VYpq-zXMXDdREieyz57f-104" value="auxiliarTrocador = cadastroPessoas[i];" style="rounded=1;whiteSpace=wrap;html=1;absoluteArcSize=1;arcSize=14;strokeWidth=2;" vertex="1" parent="1">
          <mxGeometry x="2390" y="770" width="110" height="40" as="geometry" />
        </mxCell>
        <mxCell id="VYpq-zXMXDdREieyz57f-110" value="" style="edgeStyle=orthogonalEdgeStyle;rounded=0;orthogonalLoop=1;jettySize=auto;html=1;" edge="1" parent="1" source="VYpq-zXMXDdREieyz57f-105" target="VYpq-zXMXDdREieyz57f-109">
          <mxGeometry relative="1" as="geometry" />
        </mxCell>
        <mxCell id="VYpq-zXMXDdREieyz57f-105" value="cadastroPessoas[i] = cadastroPessoas[j];" style="rounded=1;whiteSpace=wrap;html=1;absoluteArcSize=1;arcSize=14;strokeWidth=2;" vertex="1" parent="1">
          <mxGeometry x="2385" y="840" width="120" height="40" as="geometry" />
        </mxCell>
        <mxCell id="VYpq-zXMXDdREieyz57f-112" style="edgeStyle=orthogonalEdgeStyle;rounded=0;orthogonalLoop=1;jettySize=auto;html=1;entryX=1;entryY=0.5;entryDx=0;entryDy=0;entryPerimeter=0;" edge="1" parent="1" source="VYpq-zXMXDdREieyz57f-109" target="VYpq-zXMXDdREieyz57f-111">
          <mxGeometry relative="1" as="geometry">
            <Array as="points">
              <mxPoint x="2440" y="1010" />
            </Array>
          </mxGeometry>
        </mxCell>
        <mxCell id="VYpq-zXMXDdREieyz57f-109" value="cadastroPessoas[j] = auxiliarTrocador;" style="rounded=1;whiteSpace=wrap;html=1;absoluteArcSize=1;arcSize=14;strokeWidth=2;" vertex="1" parent="1">
          <mxGeometry x="2390" y="910" width="110" height="40" as="geometry" />
        </mxCell>
        <mxCell id="VYpq-zXMXDdREieyz57f-113" style="edgeStyle=orthogonalEdgeStyle;rounded=0;orthogonalLoop=1;jettySize=auto;html=1;entryX=0;entryY=0.5;entryDx=0;entryDy=0;" edge="1" parent="1" source="VYpq-zXMXDdREieyz57f-111" target="VYpq-zXMXDdREieyz57f-92">
          <mxGeometry relative="1" as="geometry">
            <Array as="points">
              <mxPoint x="2281" y="1050" />
              <mxPoint x="2040" y="1050" />
              <mxPoint x="2040" y="555" />
            </Array>
          </mxGeometry>
        </mxCell>
        <mxCell id="VYpq-zXMXDdREieyz57f-111" value="" style="strokeWidth=2;html=1;shape=mxgraph.flowchart.start_2;whiteSpace=wrap;" vertex="1" parent="1">
          <mxGeometry x="2266" y="995" width="30" height="30" as="geometry" />
        </mxCell>
        <mxCell id="VYpq-zXMXDdREieyz57f-118" value="retorna" style="strokeWidth=2;html=1;shape=mxgraph.flowchart.terminator;whiteSpace=wrap;" vertex="1" parent="1">
          <mxGeometry x="2230" y="1170" width="100" height="30" as="geometry" />
        </mxCell>
        <mxCell id="VYpq-zXMXDdREieyz57f-121" style="edgeStyle=orthogonalEdgeStyle;rounded=0;orthogonalLoop=1;jettySize=auto;html=1;" edge="1" parent="1" source="VYpq-zXMXDdREieyz57f-120" target="VYpq-zXMXDdREieyz57f-122">
          <mxGeometry relative="1" as="geometry">
            <mxPoint x="1265" y="500" as="targetPoint" />
          </mxGeometry>
        </mxCell>
        <mxCell id="VYpq-zXMXDdREieyz57f-120" value="strcpy(vaiPesquisar, &quot;S&quot;);" style="rounded=1;whiteSpace=wrap;html=1;absoluteArcSize=1;arcSize=14;strokeWidth=2;" vertex="1" parent="1">
          <mxGeometry x="1210" y="420" width="110" height="40" as="geometry" />
        </mxCell>
        <mxCell id="VYpq-zXMXDdREieyz57f-127" style="edgeStyle=orthogonalEdgeStyle;rounded=0;orthogonalLoop=1;jettySize=auto;html=1;" edge="1" parent="1" source="VYpq-zXMXDdREieyz57f-122" target="VYpq-zXMXDdREieyz57f-128">
          <mxGeometry relative="1" as="geometry">
            <mxPoint x="1265" y="680" as="targetPoint" />
          </mxGeometry>
        </mxCell>
        <mxCell id="VYpq-zXMXDdREieyz57f-183" style="edgeStyle=orthogonalEdgeStyle;rounded=0;orthogonalLoop=1;jettySize=auto;html=1;" edge="1" parent="1" source="VYpq-zXMXDdREieyz57f-122" target="VYpq-zXMXDdREieyz57f-184">
          <mxGeometry relative="1" as="geometry">
            <mxPoint x="1265" y="2110" as="targetPoint" />
            <Array as="points">
              <mxPoint x="1585" y="565" />
              <mxPoint x="1585" y="2040" />
              <mxPoint x="1265" y="2040" />
            </Array>
          </mxGeometry>
        </mxCell>
        <mxCell id="VYpq-zXMXDdREieyz57f-122" value="" style="strokeWidth=2;html=1;shape=mxgraph.flowchart.decision;whiteSpace=wrap;" vertex="1" parent="1">
          <mxGeometry x="1195" y="515" width="140" height="100" as="geometry" />
        </mxCell>
        <mxCell id="VYpq-zXMXDdREieyz57f-123" value="strcmp(vaiPesquisar, &quot;S&quot;) == 0" style="text;html=1;strokeColor=none;fillColor=none;align=center;verticalAlign=middle;whiteSpace=wrap;rounded=0;" vertex="1" parent="1">
          <mxGeometry x="1235" y="553" width="60" height="30" as="geometry" />
        </mxCell>
        <mxCell id="VYpq-zXMXDdREieyz57f-126" value="Sim" style="text;html=1;strokeColor=none;fillColor=none;align=center;verticalAlign=middle;whiteSpace=wrap;rounded=0;" vertex="1" parent="1">
          <mxGeometry x="1205" y="630" width="60" height="30" as="geometry" />
        </mxCell>
        <mxCell id="VYpq-zXMXDdREieyz57f-131" style="edgeStyle=orthogonalEdgeStyle;rounded=0;orthogonalLoop=1;jettySize=auto;html=1;" edge="1" parent="1" source="VYpq-zXMXDdREieyz57f-128" target="VYpq-zXMXDdREieyz57f-129">
          <mxGeometry relative="1" as="geometry" />
        </mxCell>
        <mxCell id="VYpq-zXMXDdREieyz57f-128" value="nomePesquisa" style="html=1;strokeWidth=2;shape=manualInput;whiteSpace=wrap;rounded=1;size=26;arcSize=11;" vertex="1" parent="1">
          <mxGeometry x="1215" y="690" width="100" height="60" as="geometry" />
        </mxCell>
        <mxCell id="VYpq-zXMXDdREieyz57f-133" value="" style="edgeStyle=orthogonalEdgeStyle;rounded=0;orthogonalLoop=1;jettySize=auto;html=1;" edge="1" parent="1" source="VYpq-zXMXDdREieyz57f-129" target="VYpq-zXMXDdREieyz57f-132">
          <mxGeometry relative="1" as="geometry" />
        </mxCell>
        <mxCell id="VYpq-zXMXDdREieyz57f-129" value="achar = false;" style="rounded=1;whiteSpace=wrap;html=1;absoluteArcSize=1;arcSize=14;strokeWidth=2;" vertex="1" parent="1">
          <mxGeometry x="1210" y="800" width="110" height="40" as="geometry" />
        </mxCell>
        <mxCell id="VYpq-zXMXDdREieyz57f-136" style="edgeStyle=orthogonalEdgeStyle;rounded=0;orthogonalLoop=1;jettySize=auto;html=1;" edge="1" parent="1" source="VYpq-zXMXDdREieyz57f-132" target="VYpq-zXMXDdREieyz57f-134">
          <mxGeometry relative="1" as="geometry" />
        </mxCell>
        <mxCell id="VYpq-zXMXDdREieyz57f-132" value="i=0;" style="rounded=1;whiteSpace=wrap;html=1;absoluteArcSize=1;arcSize=14;strokeWidth=2;" vertex="1" parent="1">
          <mxGeometry x="1210" y="880" width="110" height="40" as="geometry" />
        </mxCell>
        <mxCell id="VYpq-zXMXDdREieyz57f-138" style="edgeStyle=orthogonalEdgeStyle;rounded=0;orthogonalLoop=1;jettySize=auto;html=1;" edge="1" parent="1" source="VYpq-zXMXDdREieyz57f-134" target="VYpq-zXMXDdREieyz57f-137">
          <mxGeometry relative="1" as="geometry" />
        </mxCell>
        <mxCell id="VYpq-zXMXDdREieyz57f-178" style="edgeStyle=orthogonalEdgeStyle;rounded=0;orthogonalLoop=1;jettySize=auto;html=1;entryX=0;entryY=0.5;entryDx=0;entryDy=0;entryPerimeter=0;" edge="1" parent="1" source="VYpq-zXMXDdREieyz57f-134" target="VYpq-zXMXDdREieyz57f-122">
          <mxGeometry relative="1" as="geometry">
            <Array as="points">
              <mxPoint x="1545" y="1015" />
              <mxPoint x="1545" y="2000" />
              <mxPoint x="985" y="2000" />
              <mxPoint x="985" y="565" />
            </Array>
          </mxGeometry>
        </mxCell>
        <mxCell id="VYpq-zXMXDdREieyz57f-134" value="" style="strokeWidth=2;html=1;shape=mxgraph.flowchart.decision;whiteSpace=wrap;" vertex="1" parent="1">
          <mxGeometry x="1195" y="965" width="140" height="100" as="geometry" />
        </mxCell>
        <mxCell id="VYpq-zXMXDdREieyz57f-135" value="i&amp;lt;=quantidadePessoas &amp;amp;&amp;amp; achar = false;" style="text;html=1;strokeColor=none;fillColor=none;align=center;verticalAlign=middle;whiteSpace=wrap;rounded=0;" vertex="1" parent="1">
          <mxGeometry x="1235" y="1003" width="60" height="30" as="geometry" />
        </mxCell>
        <mxCell id="VYpq-zXMXDdREieyz57f-141" style="edgeStyle=orthogonalEdgeStyle;rounded=0;orthogonalLoop=1;jettySize=auto;html=1;entryX=0.5;entryY=0;entryDx=0;entryDy=0;" edge="1" parent="1" source="VYpq-zXMXDdREieyz57f-137" target="VYpq-zXMXDdREieyz57f-146">
          <mxGeometry relative="1" as="geometry">
            <mxPoint x="1425" y="1250" as="targetPoint" />
          </mxGeometry>
        </mxCell>
        <mxCell id="VYpq-zXMXDdREieyz57f-142" style="edgeStyle=orthogonalEdgeStyle;rounded=0;orthogonalLoop=1;jettySize=auto;html=1;" edge="1" parent="1" source="VYpq-zXMXDdREieyz57f-137" target="VYpq-zXMXDdREieyz57f-147">
          <mxGeometry relative="1" as="geometry">
            <mxPoint x="1105" y="1240" as="targetPoint" />
          </mxGeometry>
        </mxCell>
        <mxCell id="VYpq-zXMXDdREieyz57f-137" value="" style="strokeWidth=2;html=1;shape=mxgraph.flowchart.decision;whiteSpace=wrap;" vertex="1" parent="1">
          <mxGeometry x="1175" y="1120" width="180" height="100" as="geometry" />
        </mxCell>
        <mxCell id="VYpq-zXMXDdREieyz57f-140" value="strcmp(nomePesquisa, cadastroPessoas[i].nome)" style="text;html=1;strokeColor=none;fillColor=none;align=center;verticalAlign=middle;whiteSpace=wrap;rounded=0;" vertex="1" parent="1">
          <mxGeometry x="1235" y="1155" width="60" height="30" as="geometry" />
        </mxCell>
        <mxCell id="VYpq-zXMXDdREieyz57f-143" value="Sim" style="text;html=1;strokeColor=none;fillColor=none;align=center;verticalAlign=middle;whiteSpace=wrap;rounded=0;" vertex="1" parent="1">
          <mxGeometry x="1365" y="1140" width="60" height="30" as="geometry" />
        </mxCell>
        <mxCell id="VYpq-zXMXDdREieyz57f-144" value="Não" style="text;html=1;strokeColor=none;fillColor=none;align=center;verticalAlign=middle;whiteSpace=wrap;rounded=0;" vertex="1" parent="1">
          <mxGeometry x="1105" y="1140" width="60" height="30" as="geometry" />
        </mxCell>
        <mxCell id="VYpq-zXMXDdREieyz57f-145" value="Sim" style="text;html=1;strokeColor=none;fillColor=none;align=center;verticalAlign=middle;whiteSpace=wrap;rounded=0;" vertex="1" parent="1">
          <mxGeometry x="1205" y="1070" width="60" height="30" as="geometry" />
        </mxCell>
        <mxCell id="VYpq-zXMXDdREieyz57f-149" style="edgeStyle=orthogonalEdgeStyle;rounded=0;orthogonalLoop=1;jettySize=auto;html=1;" edge="1" parent="1" source="VYpq-zXMXDdREieyz57f-146" target="VYpq-zXMXDdREieyz57f-150">
          <mxGeometry relative="1" as="geometry">
            <mxPoint x="1315" y="1410" as="targetPoint" />
            <Array as="points">
              <mxPoint x="1425" y="1355" />
            </Array>
          </mxGeometry>
        </mxCell>
        <mxCell id="VYpq-zXMXDdREieyz57f-146" value="achar = true;" style="rounded=1;whiteSpace=wrap;html=1;absoluteArcSize=1;arcSize=14;strokeWidth=2;" vertex="1" parent="1">
          <mxGeometry x="1370" y="1250" width="110" height="40" as="geometry" />
        </mxCell>
        <mxCell id="VYpq-zXMXDdREieyz57f-152" style="edgeStyle=orthogonalEdgeStyle;rounded=0;orthogonalLoop=1;jettySize=auto;html=1;entryX=0;entryY=0.5;entryDx=0;entryDy=0;entryPerimeter=0;" edge="1" parent="1" source="VYpq-zXMXDdREieyz57f-147" target="VYpq-zXMXDdREieyz57f-150">
          <mxGeometry relative="1" as="geometry">
            <Array as="points">
              <mxPoint x="1110" y="1355" />
            </Array>
          </mxGeometry>
        </mxCell>
        <mxCell id="VYpq-zXMXDdREieyz57f-147" value="i++;" style="rounded=1;whiteSpace=wrap;html=1;absoluteArcSize=1;arcSize=14;strokeWidth=2;" vertex="1" parent="1">
          <mxGeometry x="1055" y="1250" width="110" height="40" as="geometry" />
        </mxCell>
        <mxCell id="VYpq-zXMXDdREieyz57f-153" style="edgeStyle=orthogonalEdgeStyle;rounded=0;orthogonalLoop=1;jettySize=auto;html=1;" edge="1" parent="1" source="VYpq-zXMXDdREieyz57f-150" target="VYpq-zXMXDdREieyz57f-154">
          <mxGeometry relative="1" as="geometry">
            <mxPoint x="1265" y="1430" as="targetPoint" />
          </mxGeometry>
        </mxCell>
        <mxCell id="VYpq-zXMXDdREieyz57f-150" value="" style="strokeWidth=2;html=1;shape=mxgraph.flowchart.start_2;whiteSpace=wrap;" vertex="1" parent="1">
          <mxGeometry x="1250" y="1340" width="30" height="30" as="geometry" />
        </mxCell>
        <mxCell id="VYpq-zXMXDdREieyz57f-157" style="edgeStyle=orthogonalEdgeStyle;rounded=0;orthogonalLoop=1;jettySize=auto;html=1;" edge="1" parent="1" source="VYpq-zXMXDdREieyz57f-154" target="VYpq-zXMXDdREieyz57f-161">
          <mxGeometry relative="1" as="geometry">
            <mxPoint x="1425" y="1530" as="targetPoint" />
          </mxGeometry>
        </mxCell>
        <mxCell id="VYpq-zXMXDdREieyz57f-158" style="edgeStyle=orthogonalEdgeStyle;rounded=0;orthogonalLoop=1;jettySize=auto;html=1;" edge="1" parent="1" source="VYpq-zXMXDdREieyz57f-154" target="VYpq-zXMXDdREieyz57f-168">
          <mxGeometry relative="1" as="geometry">
            <mxPoint x="1105" y="1530" as="targetPoint" />
          </mxGeometry>
        </mxCell>
        <mxCell id="VYpq-zXMXDdREieyz57f-154" value="achar == true" style="strokeWidth=2;html=1;shape=mxgraph.flowchart.decision;whiteSpace=wrap;" vertex="1" parent="1">
          <mxGeometry x="1215" y="1420" width="100" height="100" as="geometry" />
        </mxCell>
        <mxCell id="VYpq-zXMXDdREieyz57f-159" value="Sim" style="text;html=1;strokeColor=none;fillColor=none;align=center;verticalAlign=middle;whiteSpace=wrap;rounded=0;" vertex="1" parent="1">
          <mxGeometry x="1370" y="1440" width="60" height="30" as="geometry" />
        </mxCell>
        <mxCell id="VYpq-zXMXDdREieyz57f-160" value="Não" style="text;html=1;strokeColor=none;fillColor=none;align=center;verticalAlign=middle;whiteSpace=wrap;rounded=0;" vertex="1" parent="1">
          <mxGeometry x="1105" y="1440" width="60" height="30" as="geometry" />
        </mxCell>
        <mxCell id="VYpq-zXMXDdREieyz57f-166" style="edgeStyle=orthogonalEdgeStyle;rounded=0;orthogonalLoop=1;jettySize=auto;html=1;" edge="1" parent="1" source="VYpq-zXMXDdREieyz57f-161" target="VYpq-zXMXDdREieyz57f-164">
          <mxGeometry relative="1" as="geometry" />
        </mxCell>
        <mxCell id="VYpq-zXMXDdREieyz57f-161" value="cadastroPessoas[i].nome" style="strokeWidth=2;html=1;shape=mxgraph.flowchart.display;whiteSpace=wrap;" vertex="1" parent="1">
          <mxGeometry x="1346" y="1550" width="150" height="60" as="geometry" />
        </mxCell>
        <mxCell id="VYpq-zXMXDdREieyz57f-167" style="edgeStyle=orthogonalEdgeStyle;rounded=0;orthogonalLoop=1;jettySize=auto;html=1;" edge="1" parent="1" source="VYpq-zXMXDdREieyz57f-164" target="VYpq-zXMXDdREieyz57f-165">
          <mxGeometry relative="1" as="geometry" />
        </mxCell>
        <mxCell id="VYpq-zXMXDdREieyz57f-164" value="cadastroPessoas[i].endereco" style="strokeWidth=2;html=1;shape=mxgraph.flowchart.display;whiteSpace=wrap;" vertex="1" parent="1">
          <mxGeometry x="1341" y="1650" width="160" height="60" as="geometry" />
        </mxCell>
        <mxCell id="VYpq-zXMXDdREieyz57f-174" style="edgeStyle=orthogonalEdgeStyle;rounded=0;orthogonalLoop=1;jettySize=auto;html=1;entryX=1;entryY=0.5;entryDx=0;entryDy=0;entryPerimeter=0;" edge="1" parent="1" source="VYpq-zXMXDdREieyz57f-165" target="VYpq-zXMXDdREieyz57f-173">
          <mxGeometry relative="1" as="geometry">
            <Array as="points">
              <mxPoint x="1425" y="1875" />
            </Array>
          </mxGeometry>
        </mxCell>
        <mxCell id="VYpq-zXMXDdREieyz57f-165" value="cadastroPessoas[i].telefone" style="strokeWidth=2;html=1;shape=mxgraph.flowchart.display;whiteSpace=wrap;" vertex="1" parent="1">
          <mxGeometry x="1336" y="1750" width="170" height="60" as="geometry" />
        </mxCell>
        <mxCell id="VYpq-zXMXDdREieyz57f-169" style="edgeStyle=orthogonalEdgeStyle;rounded=0;orthogonalLoop=1;jettySize=auto;html=1;" edge="1" parent="1" source="VYpq-zXMXDdREieyz57f-168" target="VYpq-zXMXDdREieyz57f-173">
          <mxGeometry relative="1" as="geometry">
            <mxPoint x="1125" y="1800" as="targetPoint" />
            <Array as="points">
              <mxPoint x="1125" y="1875" />
            </Array>
          </mxGeometry>
        </mxCell>
        <mxCell id="VYpq-zXMXDdREieyz57f-168" value="&quot;Não existe&quot;" style="strokeWidth=2;html=1;shape=mxgraph.flowchart.display;whiteSpace=wrap;" vertex="1" parent="1">
          <mxGeometry x="1075" y="1550" width="100" height="60" as="geometry" />
        </mxCell>
        <mxCell id="VYpq-zXMXDdREieyz57f-176" style="edgeStyle=orthogonalEdgeStyle;rounded=0;orthogonalLoop=1;jettySize=auto;html=1;entryX=0;entryY=0.5;entryDx=0;entryDy=0;entryPerimeter=0;" edge="1" parent="1" source="VYpq-zXMXDdREieyz57f-173" target="VYpq-zXMXDdREieyz57f-134">
          <mxGeometry relative="1" as="geometry">
            <Array as="points">
              <mxPoint x="1265" y="1960" />
              <mxPoint x="1025" y="1960" />
              <mxPoint x="1025" y="1015" />
            </Array>
          </mxGeometry>
        </mxCell>
        <mxCell id="VYpq-zXMXDdREieyz57f-173" value="" style="strokeWidth=2;html=1;shape=mxgraph.flowchart.start_2;whiteSpace=wrap;" vertex="1" parent="1">
          <mxGeometry x="1250" y="1860" width="30" height="30" as="geometry" />
        </mxCell>
        <mxCell id="VYpq-zXMXDdREieyz57f-177" value="Não" style="text;html=1;strokeColor=none;fillColor=none;align=center;verticalAlign=middle;whiteSpace=wrap;rounded=0;" vertex="1" parent="1">
          <mxGeometry x="1355" y="980" width="60" height="30" as="geometry" />
        </mxCell>
        <mxCell id="VYpq-zXMXDdREieyz57f-190" style="edgeStyle=orthogonalEdgeStyle;rounded=0;orthogonalLoop=1;jettySize=auto;html=1;entryX=1;entryY=0.5;entryDx=0;entryDy=0;entryPerimeter=0;" edge="1" parent="1" source="VYpq-zXMXDdREieyz57f-184" target="VYpq-zXMXDdREieyz57f-187">
          <mxGeometry relative="1" as="geometry">
            <Array as="points">
              <mxPoint x="1265" y="2120" />
            </Array>
          </mxGeometry>
        </mxCell>
        <mxCell id="VYpq-zXMXDdREieyz57f-184" value="vaiPesquisar" style="html=1;strokeWidth=2;shape=manualInput;whiteSpace=wrap;rounded=1;size=26;arcSize=11;" vertex="1" parent="1">
          <mxGeometry x="1215" y="2090" width="100" height="60" as="geometry" />
        </mxCell>
        <mxCell id="VYpq-zXMXDdREieyz57f-191" style="edgeStyle=orthogonalEdgeStyle;rounded=0;orthogonalLoop=1;jettySize=auto;html=1;" edge="1" parent="1" source="VYpq-zXMXDdREieyz57f-187" target="VYpq-zXMXDdREieyz57f-189">
          <mxGeometry relative="1" as="geometry" />
        </mxCell>
        <mxCell id="VYpq-zXMXDdREieyz57f-187" value="" style="strokeWidth=2;html=1;shape=mxgraph.flowchart.start_2;whiteSpace=wrap;" vertex="1" parent="1">
          <mxGeometry x="1075" y="2160" width="40" height="40" as="geometry" />
        </mxCell>
        <mxCell id="VYpq-zXMXDdREieyz57f-189" value="retorna" style="strokeWidth=2;html=1;shape=mxgraph.flowchart.terminator;whiteSpace=wrap;" vertex="1" parent="1">
          <mxGeometry x="1045" y="2260" width="100" height="30" as="geometry" />
        </mxCell>
        <mxCell id="VYpq-zXMXDdREieyz57f-192" style="edgeStyle=orthogonalEdgeStyle;rounded=0;orthogonalLoop=1;jettySize=auto;html=1;entryX=0.495;entryY=-0.071;entryDx=0;entryDy=0;entryPerimeter=0;" edge="1" source="VYpq-zXMXDdREieyz57f-194" target="VYpq-zXMXDdREieyz57f-213" parent="1">
          <mxGeometry relative="1" as="geometry">
            <mxPoint x="3120" y="500" as="targetPoint" />
          </mxGeometry>
        </mxCell>
        <mxCell id="VYpq-zXMXDdREieyz57f-193" style="edgeStyle=orthogonalEdgeStyle;rounded=0;orthogonalLoop=1;jettySize=auto;html=1;" edge="1" source="VYpq-zXMXDdREieyz57f-194" target="VYpq-zXMXDdREieyz57f-197" parent="1">
          <mxGeometry relative="1" as="geometry">
            <mxPoint x="2800" y="440" as="targetPoint" />
          </mxGeometry>
        </mxCell>
        <mxCell id="VYpq-zXMXDdREieyz57f-194" value="houveCadastro == true" style="strokeWidth=2;html=1;shape=mxgraph.flowchart.decision;whiteSpace=wrap;" vertex="1" parent="1">
          <mxGeometry x="2900" y="330" width="100" height="100" as="geometry" />
        </mxCell>
        <mxCell id="VYpq-zXMXDdREieyz57f-195" value="Sim" style="text;html=1;strokeColor=none;fillColor=none;align=center;verticalAlign=middle;whiteSpace=wrap;rounded=0;" vertex="1" parent="1">
          <mxGeometry x="3060" y="350" width="60" height="30" as="geometry" />
        </mxCell>
        <mxCell id="VYpq-zXMXDdREieyz57f-196" value="Não" style="text;html=1;strokeColor=none;fillColor=none;align=center;verticalAlign=middle;whiteSpace=wrap;rounded=0;" vertex="1" parent="1">
          <mxGeometry x="2800" y="350" width="60" height="30" as="geometry" />
        </mxCell>
        <mxCell id="VYpq-zXMXDdREieyz57f-218" style="edgeStyle=orthogonalEdgeStyle;rounded=0;orthogonalLoop=1;jettySize=auto;html=1;entryX=0;entryY=0.5;entryDx=0;entryDy=0;entryPerimeter=0;" edge="1" parent="1" source="VYpq-zXMXDdREieyz57f-197" target="VYpq-zXMXDdREieyz57f-217">
          <mxGeometry relative="1" as="geometry">
            <Array as="points">
              <mxPoint x="2800" y="910" />
            </Array>
          </mxGeometry>
        </mxCell>
        <mxCell id="VYpq-zXMXDdREieyz57f-197" value="&quot;Cadastre primeiro&quot;" style="strokeWidth=2;html=1;shape=mxgraph.flowchart.display;whiteSpace=wrap;" vertex="1" parent="1">
          <mxGeometry x="2750" y="480" width="100" height="60" as="geometry" />
        </mxCell>
        <mxCell id="VYpq-zXMXDdREieyz57f-208" style="edgeStyle=orthogonalEdgeStyle;rounded=0;orthogonalLoop=1;jettySize=auto;html=1;" edge="1" source="VYpq-zXMXDdREieyz57f-209" target="VYpq-zXMXDdREieyz57f-211" parent="1">
          <mxGeometry relative="1" as="geometry" />
        </mxCell>
        <mxCell id="VYpq-zXMXDdREieyz57f-209" value="cadastroPessoas[i].nome" style="strokeWidth=2;html=1;shape=mxgraph.flowchart.display;whiteSpace=wrap;" vertex="1" parent="1">
          <mxGeometry x="3045" y="628" width="150" height="60" as="geometry" />
        </mxCell>
        <mxCell id="VYpq-zXMXDdREieyz57f-210" style="edgeStyle=orthogonalEdgeStyle;rounded=0;orthogonalLoop=1;jettySize=auto;html=1;" edge="1" source="VYpq-zXMXDdREieyz57f-211" target="VYpq-zXMXDdREieyz57f-212" parent="1">
          <mxGeometry relative="1" as="geometry" />
        </mxCell>
        <mxCell id="VYpq-zXMXDdREieyz57f-211" value="cadastroPessoas[i].endereco" style="strokeWidth=2;html=1;shape=mxgraph.flowchart.display;whiteSpace=wrap;" vertex="1" parent="1">
          <mxGeometry x="3040" y="725" width="160" height="60" as="geometry" />
        </mxCell>
        <mxCell id="VYpq-zXMXDdREieyz57f-216" style="edgeStyle=orthogonalEdgeStyle;rounded=0;orthogonalLoop=1;jettySize=auto;html=1;" edge="1" parent="1" source="VYpq-zXMXDdREieyz57f-212" target="VYpq-zXMXDdREieyz57f-217">
          <mxGeometry relative="1" as="geometry">
            <mxPoint x="3030" y="920" as="targetPoint" />
            <Array as="points">
              <mxPoint x="3120" y="910" />
            </Array>
          </mxGeometry>
        </mxCell>
        <mxCell id="VYpq-zXMXDdREieyz57f-212" value="cadastroPessoas[i].telefone" style="strokeWidth=2;html=1;shape=mxgraph.flowchart.display;whiteSpace=wrap;" vertex="1" parent="1">
          <mxGeometry x="3035" y="820" width="170" height="60" as="geometry" />
        </mxCell>
        <mxCell id="VYpq-zXMXDdREieyz57f-215" style="edgeStyle=orthogonalEdgeStyle;rounded=0;orthogonalLoop=1;jettySize=auto;html=1;" edge="1" parent="1" source="VYpq-zXMXDdREieyz57f-213" target="VYpq-zXMXDdREieyz57f-209">
          <mxGeometry relative="1" as="geometry" />
        </mxCell>
        <mxCell id="VYpq-zXMXDdREieyz57f-213" value="" style="verticalLabelPosition=bottom;verticalAlign=top;html=1;shape=hexagon;perimeter=hexagonPerimeter2;arcSize=6;size=0.27;" vertex="1" parent="1">
          <mxGeometry x="3050" y="510" width="140" height="60" as="geometry" />
        </mxCell>
        <mxCell id="VYpq-zXMXDdREieyz57f-214" value="i=0 ; i&amp;lt;quantidadeRegistros; i++" style="text;html=1;strokeColor=none;fillColor=none;align=center;verticalAlign=middle;whiteSpace=wrap;rounded=0;" vertex="1" parent="1">
          <mxGeometry x="3090" y="525" width="60" height="30" as="geometry" />
        </mxCell>
        <mxCell id="VYpq-zXMXDdREieyz57f-221" style="edgeStyle=orthogonalEdgeStyle;rounded=0;orthogonalLoop=1;jettySize=auto;html=1;entryX=0.5;entryY=0;entryDx=0;entryDy=0;entryPerimeter=0;" edge="1" parent="1" source="VYpq-zXMXDdREieyz57f-217" target="VYpq-zXMXDdREieyz57f-220">
          <mxGeometry relative="1" as="geometry" />
        </mxCell>
        <mxCell id="VYpq-zXMXDdREieyz57f-217" value="" style="strokeWidth=2;html=1;shape=mxgraph.flowchart.start_2;whiteSpace=wrap;" vertex="1" parent="1">
          <mxGeometry x="2940" y="895" width="30" height="30" as="geometry" />
        </mxCell>
        <mxCell id="VYpq-zXMXDdREieyz57f-220" value="retorna" style="strokeWidth=2;html=1;shape=mxgraph.flowchart.terminator;whiteSpace=wrap;" vertex="1" parent="1">
          <mxGeometry x="2905" y="970" width="100" height="30" as="geometry" />
        </mxCell>
        <mxCell id="VYpq-zXMXDdREieyz57f-223" style="edgeStyle=orthogonalEdgeStyle;rounded=0;orthogonalLoop=1;jettySize=auto;html=1;" edge="1" source="VYpq-zXMXDdREieyz57f-224" parent="1">
          <mxGeometry relative="1" as="geometry">
            <mxPoint x="370" y="1160" as="targetPoint" />
          </mxGeometry>
        </mxCell>
        <mxCell id="VYpq-zXMXDdREieyz57f-230" style="edgeStyle=orthogonalEdgeStyle;rounded=0;orthogonalLoop=1;jettySize=auto;html=1;" edge="1" parent="1" source="VYpq-zXMXDdREieyz57f-224" target="VYpq-zXMXDdREieyz57f-231">
          <mxGeometry relative="1" as="geometry">
            <mxPoint x="260" y="1280" as="targetPoint" />
          </mxGeometry>
        </mxCell>
        <mxCell id="VYpq-zXMXDdREieyz57f-224" value="opcao=&quot;3&quot;" style="strokeWidth=2;html=1;shape=mxgraph.flowchart.decision;whiteSpace=wrap;" vertex="1" parent="1">
          <mxGeometry x="210" y="1110" width="100" height="100" as="geometry" />
        </mxCell>
        <mxCell id="VYpq-zXMXDdREieyz57f-244" style="edgeStyle=orthogonalEdgeStyle;rounded=0;orthogonalLoop=1;jettySize=auto;html=1;" edge="1" parent="1" source="VYpq-zXMXDdREieyz57f-225">
          <mxGeometry relative="1" as="geometry">
            <mxPoint x="560" y="1160" as="targetPoint" />
          </mxGeometry>
        </mxCell>
        <mxCell id="VYpq-zXMXDdREieyz57f-225" value="" style="verticalLabelPosition=bottom;verticalAlign=top;html=1;shape=process;whiteSpace=wrap;rounded=1;size=0.14;arcSize=6;" vertex="1" parent="1">
          <mxGeometry x="370" y="1140" width="160" height="40" as="geometry" />
        </mxCell>
        <mxCell id="VYpq-zXMXDdREieyz57f-227" value="Não" style="text;html=1;strokeColor=none;fillColor=none;align=center;verticalAlign=middle;whiteSpace=wrap;rounded=0;" vertex="1" parent="1">
          <mxGeometry x="180" y="1210" width="60" height="30" as="geometry" />
        </mxCell>
        <mxCell id="VYpq-zXMXDdREieyz57f-229" value="apresentarRegistros()" style="text;html=1;strokeColor=none;fillColor=none;align=center;verticalAlign=middle;whiteSpace=wrap;rounded=0;" vertex="1" parent="1">
          <mxGeometry x="419.5" y="1145" width="60" height="30" as="geometry" />
        </mxCell>
        <mxCell id="VYpq-zXMXDdREieyz57f-232" style="edgeStyle=orthogonalEdgeStyle;rounded=0;orthogonalLoop=1;jettySize=auto;html=1;" edge="1" parent="1" source="VYpq-zXMXDdREieyz57f-231" target="VYpq-zXMXDdREieyz57f-234">
          <mxGeometry relative="1" as="geometry">
            <mxPoint x="370" y="1330" as="targetPoint" />
          </mxGeometry>
        </mxCell>
        <mxCell id="VYpq-zXMXDdREieyz57f-237" value="" style="edgeStyle=orthogonalEdgeStyle;rounded=0;orthogonalLoop=1;jettySize=auto;html=1;" edge="1" parent="1" source="VYpq-zXMXDdREieyz57f-231" target="VYpq-zXMXDdREieyz57f-236">
          <mxGeometry relative="1" as="geometry" />
        </mxCell>
        <mxCell id="VYpq-zXMXDdREieyz57f-231" value="opcao=&quot;4&quot;" style="strokeWidth=2;html=1;shape=mxgraph.flowchart.decision;whiteSpace=wrap;" vertex="1" parent="1">
          <mxGeometry x="210" y="1280" width="100" height="100" as="geometry" />
        </mxCell>
        <mxCell id="VYpq-zXMXDdREieyz57f-245" style="edgeStyle=orthogonalEdgeStyle;rounded=0;orthogonalLoop=1;jettySize=auto;html=1;" edge="1" parent="1" source="VYpq-zXMXDdREieyz57f-234">
          <mxGeometry relative="1" as="geometry">
            <mxPoint x="560" y="1330" as="targetPoint" />
          </mxGeometry>
        </mxCell>
        <mxCell id="VYpq-zXMXDdREieyz57f-234" value="parada = true;" style="rounded=1;whiteSpace=wrap;html=1;absoluteArcSize=1;arcSize=14;strokeWidth=2;" vertex="1" parent="1">
          <mxGeometry x="430" y="1310" width="100" height="40" as="geometry" />
        </mxCell>
        <mxCell id="VYpq-zXMXDdREieyz57f-235" value="Não" style="text;html=1;strokeColor=none;fillColor=none;align=center;verticalAlign=middle;whiteSpace=wrap;rounded=0;" vertex="1" parent="1">
          <mxGeometry x="170" y="1370" width="60" height="30" as="geometry" />
        </mxCell>
        <mxCell id="VYpq-zXMXDdREieyz57f-238" style="edgeStyle=orthogonalEdgeStyle;rounded=0;orthogonalLoop=1;jettySize=auto;html=1;" edge="1" parent="1" source="VYpq-zXMXDdREieyz57f-236" target="VYpq-zXMXDdREieyz57f-239">
          <mxGeometry relative="1" as="geometry">
            <mxPoint x="370" y="1490" as="targetPoint" />
          </mxGeometry>
        </mxCell>
        <mxCell id="VYpq-zXMXDdREieyz57f-241" style="edgeStyle=orthogonalEdgeStyle;rounded=0;orthogonalLoop=1;jettySize=auto;html=1;" edge="1" parent="1" source="VYpq-zXMXDdREieyz57f-236" target="VYpq-zXMXDdREieyz57f-242">
          <mxGeometry relative="1" as="geometry">
            <mxPoint x="260" y="1580.0000000000005" as="targetPoint" />
          </mxGeometry>
        </mxCell>
        <mxCell id="VYpq-zXMXDdREieyz57f-236" value="default" style="strokeWidth=2;html=1;shape=mxgraph.flowchart.decision;whiteSpace=wrap;" vertex="1" parent="1">
          <mxGeometry x="210" y="1430" width="100" height="100" as="geometry" />
        </mxCell>
        <mxCell id="VYpq-zXMXDdREieyz57f-246" style="edgeStyle=orthogonalEdgeStyle;rounded=0;orthogonalLoop=1;jettySize=auto;html=1;" edge="1" parent="1" source="VYpq-zXMXDdREieyz57f-239">
          <mxGeometry relative="1" as="geometry">
            <mxPoint x="560" y="1480" as="targetPoint" />
          </mxGeometry>
        </mxCell>
        <mxCell id="VYpq-zXMXDdREieyz57f-239" value="&quot;Escolha uma opção válida&quot;" style="strokeWidth=2;html=1;shape=mxgraph.flowchart.display;whiteSpace=wrap;" vertex="1" parent="1">
          <mxGeometry x="430" y="1450" width="100" height="60" as="geometry" />
        </mxCell>
        <mxCell id="VYpq-zXMXDdREieyz57f-248" style="edgeStyle=orthogonalEdgeStyle;rounded=0;orthogonalLoop=1;jettySize=auto;html=1;entryX=0;entryY=0.5;entryDx=0;entryDy=0;entryPerimeter=0;" edge="1" parent="1" source="VYpq-zXMXDdREieyz57f-242" target="VYpq-zXMXDdREieyz57f-7">
          <mxGeometry relative="1" as="geometry">
            <Array as="points">
              <mxPoint x="260" y="1680" />
              <mxPoint x="120" y="1680" />
              <mxPoint x="120" y="460" />
            </Array>
          </mxGeometry>
        </mxCell>
        <mxCell id="VYpq-zXMXDdREieyz57f-242" value="" style="strokeWidth=2;html=1;shape=mxgraph.flowchart.start_2;whiteSpace=wrap;" vertex="1" parent="1">
          <mxGeometry x="240" y="1580" width="40" height="40" as="geometry" />
        </mxCell>
        <mxCell id="VYpq-zXMXDdREieyz57f-250" value="Fim" style="strokeWidth=2;html=1;shape=mxgraph.flowchart.terminator;whiteSpace=wrap;" vertex="1" parent="1">
          <mxGeometry x="210" y="1740" width="100" height="30" as="geometry" />
        </mxCell>
        <mxCell id="VYpq-zXMXDdREieyz57f-251" value="Não" style="text;html=1;strokeColor=none;fillColor=none;align=center;verticalAlign=middle;whiteSpace=wrap;rounded=0;" vertex="1" parent="1">
          <mxGeometry x="320" y="428" width="60" height="30" as="geometry" />
        </mxCell>
        <mxCell id="VYpq-zXMXDdREieyz57f-264" style="edgeStyle=orthogonalEdgeStyle;rounded=0;orthogonalLoop=1;jettySize=auto;html=1;" edge="1" parent="1" source="VYpq-zXMXDdREieyz57f-261" target="VYpq-zXMXDdREieyz57f-44">
          <mxGeometry relative="1" as="geometry" />
        </mxCell>
        <mxCell id="VYpq-zXMXDdREieyz57f-261" value="" style="verticalLabelPosition=bottom;verticalAlign=top;html=1;shape=process;whiteSpace=wrap;rounded=1;size=0.14;arcSize=6;" vertex="1" parent="1">
          <mxGeometry x="1725" y="1050" width="150" height="40" as="geometry" />
        </mxCell>
        <mxCell id="VYpq-zXMXDdREieyz57f-262" value="ordenarRegistros()" style="text;html=1;strokeColor=none;fillColor=none;align=center;verticalAlign=middle;whiteSpace=wrap;rounded=0;" vertex="1" parent="1">
          <mxGeometry x="1772" y="1055" width="60" height="30" as="geometry" />
        </mxCell>
      </root>
    </mxGraphModel>
  </diagram>
</mxfile>
